<mxfile host="app.diagrams.net" modified="2020-09-08T15:03:03.887Z" agent="5.0 (Windows NT 10.0; Win64; x64) AppleWebKit/537.36 (KHTML, like Gecko) Chrome/84.0.4147.135 Safari/537.36" etag="gywmxxa-hOZYlelcJxKv" version="13.4.9" type="github">
  <diagram id="pqYmDPwZE4bv-MPmgcLm" name="Page-1">
    <mxGraphModel dx="1038" dy="531" grid="1" gridSize="10" guides="1" tooltips="1" connect="1" arrows="1" fold="1" page="1" pageScale="1" pageWidth="850" pageHeight="1100" math="0" shadow="0">
      <root>
        <mxCell id="0" />
        <mxCell id="1" parent="0" />
        <mxCell id="q2yK3YC7Z4xDrggMoy6Q-3" value="" style="edgeStyle=orthogonalEdgeStyle;rounded=0;orthogonalLoop=1;jettySize=auto;html=1;" edge="1" parent="1" source="q2yK3YC7Z4xDrggMoy6Q-1" target="q2yK3YC7Z4xDrggMoy6Q-2">
          <mxGeometry relative="1" as="geometry" />
        </mxCell>
        <mxCell id="q2yK3YC7Z4xDrggMoy6Q-1" value="" style="ellipse;whiteSpace=wrap;html=1;" vertex="1" parent="1">
          <mxGeometry x="150" y="50" width="120" height="80" as="geometry" />
        </mxCell>
        <mxCell id="q2yK3YC7Z4xDrggMoy6Q-5" value="" style="edgeStyle=orthogonalEdgeStyle;rounded=0;orthogonalLoop=1;jettySize=auto;html=1;" edge="1" parent="1" source="q2yK3YC7Z4xDrggMoy6Q-2" target="q2yK3YC7Z4xDrggMoy6Q-4">
          <mxGeometry relative="1" as="geometry" />
        </mxCell>
        <mxCell id="q2yK3YC7Z4xDrggMoy6Q-2" value="Get an input&lt;br&gt;" style="shape=parallelogram;perimeter=parallelogramPerimeter;whiteSpace=wrap;html=1;fontFamily=Helvetica;fontSize=12;fontColor=#000000;align=center;strokeColor=#000000;fillColor=#ffffff;" vertex="1" parent="1">
          <mxGeometry x="150" y="220" width="120" height="60" as="geometry" />
        </mxCell>
        <mxCell id="q2yK3YC7Z4xDrggMoy6Q-7" value="" style="edgeStyle=orthogonalEdgeStyle;rounded=0;orthogonalLoop=1;jettySize=auto;html=1;" edge="1" parent="1" source="q2yK3YC7Z4xDrggMoy6Q-4" target="q2yK3YC7Z4xDrggMoy6Q-6">
          <mxGeometry relative="1" as="geometry" />
        </mxCell>
        <mxCell id="q2yK3YC7Z4xDrggMoy6Q-4" value="Get an input&lt;br&gt;" style="shape=parallelogram;perimeter=parallelogramPerimeter;whiteSpace=wrap;html=1;fontFamily=Helvetica;fontSize=12;fontColor=#000000;align=center;strokeColor=#000000;fillColor=#ffffff;" vertex="1" parent="1">
          <mxGeometry x="150" y="360" width="120" height="60" as="geometry" />
        </mxCell>
        <mxCell id="q2yK3YC7Z4xDrggMoy6Q-9" value="" style="edgeStyle=orthogonalEdgeStyle;rounded=0;orthogonalLoop=1;jettySize=auto;html=1;" edge="1" parent="1" source="q2yK3YC7Z4xDrggMoy6Q-6" target="q2yK3YC7Z4xDrggMoy6Q-8">
          <mxGeometry relative="1" as="geometry" />
        </mxCell>
        <mxCell id="q2yK3YC7Z4xDrggMoy6Q-6" value="add numbers together&lt;br&gt;Display result&lt;br&gt;" style="whiteSpace=wrap;html=1;" vertex="1" parent="1">
          <mxGeometry x="150" y="500" width="120" height="60" as="geometry" />
        </mxCell>
        <mxCell id="q2yK3YC7Z4xDrggMoy6Q-10" value="Yes" style="edgeStyle=orthogonalEdgeStyle;rounded=0;orthogonalLoop=1;jettySize=auto;html=1;exitX=1;exitY=0.5;exitDx=0;exitDy=0;entryX=1;entryY=0.25;entryDx=0;entryDy=0;" edge="1" parent="1" source="q2yK3YC7Z4xDrggMoy6Q-8" target="q2yK3YC7Z4xDrggMoy6Q-2">
          <mxGeometry relative="1" as="geometry">
            <Array as="points">
              <mxPoint x="460" y="670" />
              <mxPoint x="460" y="237" />
            </Array>
          </mxGeometry>
        </mxCell>
        <mxCell id="q2yK3YC7Z4xDrggMoy6Q-12" value="" style="edgeStyle=orthogonalEdgeStyle;rounded=0;orthogonalLoop=1;jettySize=auto;html=1;" edge="1" parent="1" source="q2yK3YC7Z4xDrggMoy6Q-8" target="q2yK3YC7Z4xDrggMoy6Q-11">
          <mxGeometry relative="1" as="geometry" />
        </mxCell>
        <mxCell id="q2yK3YC7Z4xDrggMoy6Q-8" value="repeat?" style="rhombus;whiteSpace=wrap;html=1;" vertex="1" parent="1">
          <mxGeometry x="170" y="630" width="80" height="80" as="geometry" />
        </mxCell>
        <mxCell id="q2yK3YC7Z4xDrggMoy6Q-11" value="End" style="ellipse;whiteSpace=wrap;html=1;" vertex="1" parent="1">
          <mxGeometry x="150" y="790" width="120" height="80" as="geometry" />
        </mxCell>
      </root>
    </mxGraphModel>
  </diagram>
</mxfile>
